# xmcd
# 
# Track frame offsets:
#     150
#     7157
#     42855
#     55305
#     107877
#     129782
#     181580
#     203852
#     231465
# 
# Disc length: 3369
# 
# Revision: 1
# Processed by: cddbd v1.5.2PL0 Copyright (c) Steve Scherf et al.
# Submitted via: BonkEnc v1.0.8
# 
DISCID=750d2709
DTITLE=カンカワ - ウガンダの祈り
DYEAR=1998
DGENRE=Contemporary Jazz
TTITLE0=Part 1
TTITLE1=Part 2
TTITLE2=Part 3
TTITLE3=Part 4
TTITLE4=Part 5
TTITLE5=Part 6
TTITLE6=Part 7
TTITLE7=Part 8
TTITLE8=Part 9
EXTD=
EXTT0=
EXTT1=
EXTT2=
EXTT3=
EXTT4=
EXTT5=
EXTT6=
EXTT7=
EXTT8=
PLAYORDER=
